<?xml version="1.0" encoding="UTF-8" standalone="no"?>
<svg
   xmlns:dc="http://purl.org/dc/elements/1.1/"
   xmlns:cc="http://creativecommons.org/ns#"
   xmlns:rdf="http://www.w3.org/1999/02/22-rdf-syntax-ns#"
   xmlns:svg="http://www.w3.org/2000/svg"
   xmlns="http://www.w3.org/2000/svg"
   xmlns:sodipodi="http://sodipodi.sourceforge.net/DTD/sodipodi-0.dtd"
   xmlns:inkscape="http://www.inkscape.org/namespaces/inkscape"
   id="svg"
   version="1.1"
   width="512"
   height="512"
   style="display: block;"
   sodipodi:docname="icon.svg"
   inkscape:version="0.92.1 r">
  <metadata
     id="metadata10">
    <rdf:RDF>
      <cc:Work
         rdf:about="">
        <dc:format>image/svg+xml</dc:format>
        <dc:type
           rdf:resource="http://purl.org/dc/dcmitype/StillImage" />
      </cc:Work>
    </rdf:RDF>
  </metadata>
  <defs
     id="defs8" />
  <sodipodi:namedview
     pagecolor="#ffffff"
     bordercolor="#666666"
     borderopacity="1"
     objecttolerance="10"
     gridtolerance="10"
     guidetolerance="10"
     inkscape:pageopacity="0"
     inkscape:pageshadow="2"
     inkscape:window-width="945"
     inkscape:window-height="512"
     id="namedview6"
     showgrid="false"
     inkscape:zoom="0.65186406"
     inkscape:cx="256.13697"
     inkscape:cy="251.44673"
     inkscape:window-x="965"
     inkscape:window-y="558"
     inkscape:window-maximized="0"
     inkscape:current-layer="svg" />
  <g
     id="svgg"
     transform="matrix(1.3099461,0,0,1.3099461,-9.0366163,12.913832)">
    <path
       id="path0"
       d="m 151.367,48.952 c -1.611,0.668 -2.929,1.529 -2.929,1.913 0,0.384 -0.505,0.698 -1.121,0.698 -0.617,0 -5.117,3.955 -10.001,8.789 -8.618,8.53 -12.287,12.455 -22.082,23.617 -9.656,11.004 -9.019,10.562 -15.208,10.562 H 94.531 V 86.719 78.906 H 77.344 60.156 v 7.813 7.812 H 50.142 c -9.258,0 -17.576,1.328 -18.892,3.015 -0.215,0.276 -1.367,1.046 -2.56,1.713 -3.024,1.69 -9.94,8.525 -9.94,9.824 0,0.59 -0.319,1.073 -0.708,1.073 -4.884,0 -5.026,199.782 -0.143,201.409 0.468,0.156 0.851,0.701 0.851,1.21 0,2.443 11.765,13.788 14.298,13.788 0.347,0 2.182,0.706 4.077,1.569 5.046,2.299 331.973,2.101 334.276,-0.202 0.752,-0.752 1.811,-1.368 2.355,-1.368 2.759,0 13.729,-11.577 13.749,-14.51 0.002,-0.398 0.618,-1.779 1.367,-3.068 1.275,-2.194 1.362,-8.446 1.362,-98.046 v -95.704 l -2.171,-4.492 c -1.194,-2.471 -2.513,-4.492 -2.93,-4.492 -0.417,0 -0.758,-0.5 -0.758,-1.111 0,-1.317 -6.077,-6.701 -7.562,-6.701 -0.568,0 -1.032,-0.338 -1.032,-0.751 0,-2.55 -7.802,-3.155 -41.352,-3.207 l -33.257,-0.051 -1.953,-2.315 c -1.074,-1.274 -3.711,-4.247 -5.86,-6.608 -2.148,-2.362 -5.66,-6.306 -7.804,-8.767 -6.56,-7.527 -24.596,-25.176 -25.728,-25.176 -0.586,0 -1.243,-0.461 -1.459,-1.024 -1.217,-3.171 -99.663,-4.631 -107.001,-1.587 m 101.175,17.522 c 2.042,1.751 10.479,10.924 18.75,20.385 8.27,9.461 15.597,17.843 16.284,18.626 4.173,4.763 3.293,4.665 41.955,4.668 28.941,0.003 35.775,0.204 37.5,1.105 2.833,1.48 6.12,5.044 7.138,7.738 1.165,3.085 1.152,179.426 -0.014,183.625 -0.959,3.453 -5.997,9.29 -9.136,10.583 -1.556,0.641 -45.218,0.822 -162.403,0.673 l -160.275,-0.205 -3.397,-2.423 c -1.868,-1.332 -4.54,-4.097 -5.936,-6.143 l -2.539,-3.72 v -90.185 c 0,-98.208 -0.283,-92.042 4.422,-96.511 4.761,-4.522 4.87,-4.534 43.093,-4.534 h 35.066 l 2.655,-1.788 c 1.46,-0.984 4.845,-4.526 7.523,-7.871 7.03,-8.782 23.627,-26.968 29.645,-32.483 l 5.165,-4.733 45.395,0.005 45.395,0.005 3.714,3.183 m -65.433,59.336 c -65.561,13.241 -89.892,93.009 -42.65,139.827 25.695,25.465 65.472,31.493 96.375,14.604 2.678,-1.463 6.402,-3.505 8.275,-4.537 15.547,-8.565 31.248,-33.472 34.912,-55.381 9.41,-56.28 -41.307,-105.742 -96.912,-94.513 m 26.172,13.623 c 6.923,1.065 15.124,3.57 16.702,5.102 0.389,0.377 -4.026,6.579 -10.156,14.268 -28.832,36.167 -34.971,43.553 -35.641,42.883 -0.394,-0.394 -0.77,-13.846 -0.846,-30.283 l -0.137,-29.574 1.985,-0.957 c 5.034,-2.426 17.522,-3.066 28.093,-1.439 m -47.065,67.228 c 0.123,34.303 -0.085,56.427 -0.534,56.876 -1.721,1.721 -14.151,-9.784 -20.111,-18.615 -17.603,-26.083 -14.812,-61.256 6.686,-84.27 4.362,-4.67 11.875,-10.759 12.867,-10.428 0.655,0.218 0.945,15.224 1.092,56.437 m 84.411,-48.263 c 23.295,23.35 27.072,59.157 9.095,86.199 -4.152,6.246 -13.226,15.9 -14.313,15.228 -1.289,-0.796 -42.284,-55.731 -42.284,-56.661 0,-0.761 4.647,-6.498 23.787,-29.365 2.171,-2.594 6.928,-8.307 10.572,-12.695 7.859,-9.467 6.647,-9.218 13.143,-2.706 m -55.181,61.983 c 5.727,7.772 15.947,21.571 22.711,30.664 6.764,9.093 12.212,17.039 12.108,17.657 -0.94,5.569 -35.577,9.066 -44.967,4.541 l -2.095,-1.009 0.163,-31.953 c 0.15,-29.472 0.326,-34.031 1.313,-34.031 0.195,0 5.04,6.359 10.767,14.131"
       inkscape:connector-curvature="0"
       style="fill:#000000;fill-rule:evenodd;stroke:none" />
    <path
       id="path1"
       d="m 152.44841,64.980069 c -6.018,5.515 -22.615,23.701 -29.645,32.483 -2.678,3.345001 -6.063,6.887001 -7.523,7.871001 l -2.655,1.788 H 77.559407 c -38.223,0 -38.332,0.012 -43.093,4.534 -4.705,4.469 -4.422,-1.697 -4.422,96.511 v 90.185 l 2.539,3.72 c 1.396,2.046 4.068,4.811 5.936,6.143 l 3.397,2.423 160.275003,0.205 c 117.185,0.149 160.847,-0.032 162.403,-0.673 3.139,-1.293 8.177,-7.13 9.136,-10.583 1.166,-4.199 1.179,-180.54 0.014,-183.625 -1.018,-2.694 -4.305,-6.258 -7.138,-7.738 -1.725,-0.901 -8.559,-1.102 -37.5,-1.105 -38.662,-0.003 -37.782,0.095 -41.955,-4.668 -0.687,-0.783 -8.014,-9.165001 -16.284,-18.626001 -8.271,-9.461 -16.708,-18.634 -18.75,-20.385 l -3.714,-3.183 -45.395,-0.005 -45.395,-0.005 -5.165,4.733 m 62.539,57.338001 c 56.562,9.954 86.089,68.636 60.36,119.961 -5.404,10.779 -18.818,26.07 -26.663,30.391 -1.873,1.032 -5.597,3.074 -8.275,4.537 -45.11,24.653 -103.386,-0.358 -117.751,-50.537 -16.509,-57.666 33.896,-114.635 92.329,-104.352 m -23.193,13.843 c -2.775,0.396 -5.939,1.151 -7.031,1.677 l -1.985,0.957 0.137,29.574 c 0.076,16.437 0.452,29.889 0.846,30.283 0.67,0.67 6.809,-6.716 35.641,-42.883 6.13,-7.689 10.545,-13.891 10.156,-14.268 -4.38,-4.251 -24.987,-7.165 -37.764,-5.34 m -32.564,14.584 c -31.607,26.605 -34.519,70.99 -6.587,100.392 5.515,5.805 11.632,10.347 12.614,9.366 1.13,-1.131 0.58,-112.934 -0.558,-113.313 -0.491,-0.164 -2.952,1.436 -5.469,3.555 m 77.829,7.325 c -3.644,4.388 -8.401,10.101 -10.572,12.695 -19.14,22.867 -23.787,28.604 -23.787,29.365 0,0.93 40.995,55.865 42.284,56.661 1.087,0.672 10.161,-8.982 14.313,-15.228 17.977,-27.042 14.2,-62.849 -9.095,-86.199 -6.496,-6.512 -5.284,-6.761 -13.143,2.706 m -53.557,46.185 c -0.219,0.571 -0.472,15.418 -0.561,32.992 l -0.163,31.953 2.095,1.009 c 9.39,4.525 44.027,1.028 44.967,-4.541 0.104,-0.618 -5.344,-8.564 -12.108,-17.657 -6.764,-9.093 -16.984,-22.892 -22.711,-30.664 -10.883,-14.768 -10.878,-14.762 -11.519,-13.092"
       inkscape:connector-curvature="0"
       style="fill:#ffffff;fill-rule:evenodd;stroke:none" />
  </g>
</svg>
